<svg width="32" height="32" viewBox="0 0 32 32" fill="none" xmlns="http://www.w3.org/2000/svg">
<path d="M13.4396 1.91992C7.43707 1.91992 2.55957 6.79742 2.55957 12.7999C2.55957 18.8024 7.43707 23.6799 13.4396 23.6799C15.8146 23.6799 18.0096 22.9149 19.7996 21.6199L28.2196 30.0199L30.0196 28.2199L21.6996 19.8799C23.3346 17.9749 24.3196 15.5024 24.3196 12.7999C24.3196 6.79742 19.4421 1.91992 13.4396 1.91992ZM13.4396 3.19992C18.7496 3.19992 23.0396 7.48992 23.0396 12.7999C23.0396 18.1099 18.7496 22.3999 13.4396 22.3999C8.12957 22.3999 3.83957 18.1099 3.83957 12.7999C3.83957 7.48992 8.12957 3.19992 13.4396 3.19992Z" fill="white"/>
</svg>
