<svg width="302" height="202" viewBox="0 0 302 202" fill="none" xmlns="http://www.w3.org/2000/svg">
    <path
        d="M94.2422 200.381H167.464L163.584 200.333C162.577 200.32 161.736 199.56 161.622 198.559L157.119 159H101.631L96.2238 198.651C96.0887 199.642 95.2423 200.381 94.2422 200.381Z"
        fill="#00FFFF" fill-opacity="0.1" />
    <path
        d="M258.69 75.2976V3C258.69 1.89543 257.795 1 256.69 1H2.99999C1.89543 1 1 1.89543 1 3V157C1 158.104 1.89543 159 3 159H101.631M225.774 159H157.119M101.631 159H157.119M101.631 159L96.2238 198.651C96.0887 199.642 95.2423 200.381 94.2422 200.381H90.3451H167.464L163.584 200.333C162.577 200.32 161.736 199.56 161.622 198.559L157.119 159"
        stroke="#00FFFF" stroke-width="2" stroke-linecap="round" stroke-linejoin="round" />
    <path
        d="M14.2832 146.763H246.342C247.447 146.763 248.342 145.868 248.342 144.763V12.3944C248.342 11.2899 247.447 10.3944 246.342 10.3944H14.2832C13.1786 10.3944 12.2832 11.2899 12.2832 12.3944V144.763C12.2832 145.868 13.1786 146.763 14.2832 146.763Z"
        fill="#00FFFF" fill-opacity="0.1" stroke="#00FFFF" stroke-opacity="0.1" stroke-linecap="round"
        stroke-linejoin="round" />
    <path
        d="M164.639 46.244V110.899C164.639 112.003 163.744 112.899 162.639 112.899H97.0439C95.9394 112.899 95.0439 112.003 95.0439 110.899V46.244C95.0439 45.1394 95.9394 44.244 97.0439 44.244H162.639C163.744 44.244 164.639 45.1394 164.639 46.244Z"
        fill="#012033" />
    <path d="M129.457 58.7455L129.263 58.8655M129.263 58.8655L129.457 58.9854M129.263 58.8655H122" stroke="white"
        stroke-width="0.2" stroke-linecap="round" stroke-linejoin="round" />
    <path d="M129.971 58.9855L130.165 58.8655M130.165 58.8655L129.971 58.7455M130.165 58.8655H137.428" stroke="white"
        stroke-width="0.2" stroke-linecap="round" stroke-linejoin="round" />
    <rect width="0.283333" height="0.283333" transform="matrix(0.882353 -0.470588 0.882353 0.470588 129.457 58.8667)"
        fill="white" />
    <path
        d="M120.063 55.6035V55.8262H119.403V56.1777H120.03V56.4092H119.4V57H119.146V55.6035H120.063ZM121.196 55.6035V55.8281H120.796V57H120.537V55.8281H120.137V55.6035H121.196ZM122.198 57V57.2051H121.222V57H122.198ZM123.282 55.6035V55.8281H122.882V57H122.623V55.8281H122.223V55.6035H123.282ZM123.43 56.9981V55.6035H124.064C124.35 55.6035 124.492 55.7282 124.492 55.9776C124.492 56.1462 124.381 56.2858 124.159 56.3965L124.602 57H124.275L123.851 56.3916V56.2735C124.098 56.2311 124.222 56.1351 124.222 55.9854C124.222 55.8825 124.164 55.8311 124.048 55.8311H123.693V56.9981H123.43ZM124.868 57H124.603L125.195 55.6035H125.474L126.079 57H125.801L125.642 56.6192H125.178L125.267 56.3945H125.548L125.328 55.8701L124.868 57ZM126.25 57V55.6035H126.509L127.246 56.6211V55.6035H127.495V57H127.236L126.499 55.961V57H126.25ZM127.765 56.9414V56.707C127.905 56.7591 128.063 56.7852 128.239 56.7852C128.453 56.7852 128.561 56.7136 128.561 56.5703C128.561 56.4662 128.495 56.4141 128.363 56.4141H128.145C127.859 56.4141 127.716 56.2839 127.716 56.0235C127.716 55.737 127.919 55.5938 128.326 55.5938C128.482 55.5938 128.631 55.6166 128.771 55.6621V55.8965C128.631 55.8444 128.482 55.8184 128.326 55.8184C128.092 55.8184 127.975 55.8867 127.975 56.0235C127.975 56.1276 128.031 56.1797 128.145 56.1797H128.363C128.667 56.1797 128.819 56.3099 128.819 56.5703C128.819 56.8633 128.626 57.0098 128.239 57.0098C128.063 57.0098 127.905 56.987 127.765 56.9414ZM130.152 56.9414C130.032 56.987 129.895 57.0098 129.742 57.0098C129.241 57.0098 128.99 56.7673 128.99 56.2822C128.99 55.8233 129.241 55.5938 129.742 55.5938C129.895 55.5938 130.032 55.6166 130.152 55.6621V55.8965C130.032 55.8444 129.902 55.8184 129.762 55.8184C129.426 55.8184 129.259 55.973 129.259 56.2822C129.259 56.6175 129.426 56.7852 129.762 56.7852C129.902 56.7852 130.032 56.7591 130.152 56.707V56.9414ZM131.353 55.6035V55.8262H130.653V56.1777H131.319V56.4092H130.65V56.7754H131.366V57H130.396V55.6035H131.353ZM131.605 57V55.6035H131.864L132.602 56.6211V55.6035H132.851V57H132.592L131.854 55.961V57H131.605ZM133.691 56.7754C133.981 56.7754 134.126 56.6048 134.126 56.2637C134.126 55.9733 133.981 55.8281 133.691 55.8281H133.403V56.7754H133.691ZM133.145 57V55.6035H133.691C134.154 55.6035 134.385 55.8236 134.385 56.2637C134.385 56.7546 134.154 57 133.691 57H133.145ZM135.562 55.6035V55.8262H134.862V56.1777H135.528V56.4092H134.859V56.7754H135.575V57H134.605V55.6035H135.562ZM135.814 57V55.6035H136.073L136.811 56.6211V55.6035H137.06V57H136.801L136.063 55.961V57H135.814ZM138.467 56.9414C138.346 56.987 138.21 57.0098 138.057 57.0098C137.555 57.0098 137.305 56.7673 137.305 56.2822C137.305 55.8233 137.555 55.5938 138.057 55.5938C138.21 55.5938 138.346 55.6166 138.467 55.6621V55.8965C138.346 55.8444 138.216 55.8184 138.076 55.8184C137.741 55.8184 137.573 55.973 137.573 56.2822C137.573 56.6175 137.741 56.7852 138.076 56.7852C138.216 56.7852 138.346 56.7591 138.467 56.707V56.9414ZM139.667 55.6035V55.8262H138.968V56.1777H139.634V56.4092H138.965V56.7754H139.681V57H138.711V55.6035H139.667Z"
        fill="white" />
    <path
        d="M157.11 88.4006V78.1744C157.11 77.6222 156.662 77.1744 156.11 77.1744H103.562C103.01 77.1744 102.562 77.6222 102.562 78.1744V88.4006C102.562 88.9529 103.01 89.4006 103.563 89.4006H156.11C156.662 89.4006 157.11 88.9529 157.11 88.4006Z"
        stroke="#00FFFF" stroke-width="0.5" stroke-linecap="round" />
    <path
        d="M157.11 104.397V97.9327C157.11 97.3804 156.662 96.9327 156.11 96.9327H103.562C103.01 96.9327 102.562 97.3804 102.562 97.9327V104.397C102.562 104.949 103.01 105.397 103.563 105.397H156.11C156.662 105.397 157.11 104.949 157.11 104.397Z"
        fill="#029C9C" />
    <path
        d="M232.346 197.431V83.8716C232.346 82.767 233.241 81.8716 234.346 81.8716H299C300.105 81.8716 301 82.767 301 83.8716V197.431C301 198.536 300.105 199.431 299 199.431H234.346C233.241 199.431 232.346 198.536 232.346 197.431Z"
        fill="#012033" />
    <path
        d="M275.608 91.2763H257.739M301 83.8716V197.431C301 198.536 300.105 199.431 299 199.431H234.346C233.241 199.431 232.346 198.536 232.346 197.431V83.8716C232.346 82.767 233.241 81.8716 234.346 81.8716H299C300.105 81.8716 301 82.767 301 83.8716Z"
        stroke="#00FFFF" stroke-width="2" stroke-linecap="round" stroke-linejoin="round" />
    <path
        d="M263.388 190.041C263.388 192.119 265.072 193.803 267.15 193.803C269.227 193.803 270.911 192.119 270.911 190.041C270.911 187.963 269.227 186.279 267.15 186.279C265.072 186.279 263.388 187.963 263.388 190.041Z"
        fill="#00FFFF" />
    <path
        d="M251.652 145.56H250.1V143.744H245.869V142.572L249.297 137.181H250.961L247.645 142.513H250.1V139.713H251.652V142.513L252.52 143.31V143.744H251.652V145.56ZM253.252 145.56V144.388C256.045 142.447 257.441 140.845 257.441 139.584C257.441 138.841 256.934 138.47 255.918 138.47C255.059 138.47 254.248 138.685 253.486 139.115V137.709C254.248 137.318 255.059 137.123 255.918 137.123C257.969 137.123 258.994 137.943 258.994 139.584C258.994 141.029 257.875 142.572 255.637 144.213H258.994V145.56H253.252ZM260.166 137.181H266.143V138.412L262.381 145.56H260.676L264.496 138.529H260.166V137.181ZM269.541 143.076C269.541 142.205 269.955 141.558 270.783 141.136C270.111 140.765 269.775 140.134 269.775 139.244C269.775 137.814 270.791 137.099 272.822 137.099C274.854 137.099 275.869 137.814 275.869 139.244C275.869 140.134 275.523 140.765 274.832 141.136C275.68 141.558 276.104 142.205 276.104 143.076C276.104 144.771 275.029 145.619 272.881 145.619C270.654 145.619 269.541 144.771 269.541 143.076ZM272.852 140.521C273.828 140.521 274.316 140.154 274.316 139.42C274.316 138.787 273.822 138.47 272.834 138.47C271.83 138.47 271.328 138.787 271.328 139.42C271.328 140.154 271.836 140.521 272.852 140.521ZM272.91 144.271C274.004 144.271 274.551 143.884 274.551 143.111C274.551 142.283 273.979 141.869 272.834 141.869C271.674 141.869 271.094 142.283 271.094 143.111C271.094 143.884 271.699 144.271 272.91 144.271ZM283.604 140.386C283.604 142.558 282.26 144.361 279.572 145.795L278.834 144.582C280.17 143.953 281.115 143.174 281.67 142.244C281.197 142.451 280.717 142.554 280.229 142.554C278.182 142.554 277.158 141.675 277.158 139.918C277.158 138.043 278.258 137.105 280.457 137.105C282.555 137.105 283.604 138.199 283.604 140.386ZM282.109 140.422C282.109 139.031 281.541 138.336 280.404 138.336C279.26 138.336 278.688 138.863 278.688 139.918C278.688 140.855 279.219 141.324 280.281 141.324C280.883 141.324 281.457 141.23 282.004 141.043C282.074 140.886 282.109 140.679 282.109 140.422ZM290.125 145.56H288.572V143.744H284.342V142.572L287.77 137.181H289.434L286.117 142.513H288.572V139.713H290.125V142.513L290.992 143.31V143.744H290.125V145.56Z"
        fill="white" />
</svg>