<svg width="28" height="20" viewBox="0 0 28 20" fill="none" xmlns="http://www.w3.org/2000/svg">
    <path
        d="M24.5799 0.495361H3.42014C1.53436 0.495361 0 2.02972 0 3.9155V16.084C0 17.9698 1.53436 19.5042 3.42014 19.5042H24.5799C26.4656 19.5042 28 17.9698 28 16.084V3.91587C28.0004 2.02972 26.466 0.495361 24.5799 0.495361ZM22.9086 2.72662L14 8.46614L5.09135 2.72662H22.9086ZM24.5799 17.2733H3.42014C2.76452 17.2733 2.23125 16.7396 2.23125 16.0844V3.97909L13.3117 11.1042C13.3265 11.1135 13.3425 11.1198 13.3578 11.1284C13.3738 11.1373 13.3901 11.1459 13.4065 11.1541C13.4924 11.1983 13.5809 11.234 13.6713 11.2574C13.6806 11.26 13.6899 11.2612 13.6992 11.2634C13.7984 11.2868 13.8988 11.3013 13.9993 11.3013H14C14.0007 11.3013 14.0015 11.3013 14.0015 11.3013C14.1019 11.3013 14.2023 11.2872 14.3016 11.2634C14.3109 11.2612 14.3202 11.26 14.3295 11.2574C14.4198 11.234 14.508 11.1983 14.5943 11.1541C14.6106 11.1459 14.627 11.1373 14.643 11.1284C14.6582 11.1198 14.6742 11.1135 14.6891 11.1042L25.7695 3.97909V16.084C25.7691 16.7396 25.2355 17.2733 24.5799 17.2733Z"
        fill="#00FFFC" />
</svg>