<!-- <svg width="20" height="17" viewBox="0 0 20 17" fill="none" xmlns="http://www.w3.org/2000/svg">
    <path
        d="M12.3464 2.43904L10.6134 4.26937C9.94915 4.08219 9.24972 4.08199 8.58542 4.2688C7.92111 4.4556 7.31536 4.82283 6.82907 5.33354C6.34279 5.84425 5.99313 6.48044 5.81526 7.17811C5.63739 7.87579 5.63758 8.61036 5.81581 9.30793L3.11351 12.1357C1.82111 11.1074 0.74411 9.77066 0 8.23852C1.11707 5.9381 2.94999 4.10836 5.19421 3.05334C7.43843 1.99832 9.95881 1.78155 12.3366 2.43904H12.3464ZM16.0669 4.34135C17.3691 5.36963 18.4461 6.70639 19.2 8.23852C18.0822 10.5432 16.2461 12.3759 13.9977 13.4312C11.7493 14.4865 9.22438 14.7007 6.84386 14.038L8.57685 12.2077C9.24106 12.3949 9.94049 12.3951 10.6048 12.2083C11.2691 12.0214 11.8749 11.6542 12.3611 11.1435C12.8474 10.6328 13.1971 9.99661 13.375 9.29894C13.5528 8.60126 13.5526 7.86669 13.3744 7.16912L16.0767 4.34135H16.0669ZM15.8221 0.238525L17.2124 1.69868L3.36808 16.2385L1.97777 14.7784L15.8221 0.238525Z"
        fill="#00FFFC" fill-opacity="0.5" />
</svg> -->


<svg height="21px" version="1.1" viewBox="0 0 22 21" width="22px" xmlns="http://www.w3.org/2000/svg"
    xmlns:sketch="http://www.bohemiancoding.com/sketch/ns" xmlns:xlink="http://www.w3.org/1999/xlink">
    <title />
    <desc />
    <defs />
    <g fill="none" fill-rule="evenodd" id="Page-1" stroke="none" stroke-width="1">
        <g fill="#00FFFC" id="Core" transform="translate(-295.000000, -506.000000)">
            <g id="visibility-off" transform="translate(295.000000, 506.500000)">
                <path
                    d="M11,4 C13.8,4 16,6.2 16,9 C16,9.6 15.9,10.3 15.6,10.8 L18.5,13.7 C20,12.4 21.2,10.8 21.9,9 C20.2,4.6 15.9,1.5 10.9,1.5 C9.5,1.5 8.2,1.8 6.9,2.2 L9.1,4.4 C9.7,4.1 10.4,4 11,4 L11,4 Z M1,1.3 L3.3,3.6 L3.7,4 C2,5.3 0.7,7 0,9 C1.7,13.4 6,16.5 11,16.5 C12.5,16.5 14,16.2 15.4,15.7 L15.8,16.1 L18.7,19 L20,17.7 L2.3,0 L1,1.3 L1,1.3 Z M6.5,6.8 L8,8.3 L8,9 C8,10.7 9.3,12 11,12 C11.2,12 11.4,12 11.7,11.9 L13.2,13.4 C12.5,13.8 11.8,14 11,14 C8.2,14 6,11.8 6,9 C6,8.2 6.2,7.5 6.5,6.8 L6.5,6.8 Z M10.8,6 L13.9,9.1 L13.9,8.9 C13.9,7.2 12.6,5.9 10.9,5.9 C10.9,6 10.9,6 10.8,6 L10.8,6 Z"
                    id="Shape" />
            </g>
        </g>
    </g>
</svg>