<!-- <svg width="156" height="2" viewBox="0 0 156 2" fill="none" xmlns="http://www.w3.org/2000/svg">
    <path d="M156 1.14453H0" stroke="#00FFFC" />
</svg> -->

<svg width="358" height="26" viewBox="0 0 358 26" fill="none" xmlns="http://www.w3.org/2000/svg">
    <path
        d="M167.028 12.4209C167.028 15.9945 168.615 17.7812 171.787 17.7812C174.881 17.7812 176.428 15.9945 176.428 12.4209C176.428 8.90462 174.881 7.14648 171.787 7.14648C168.615 7.14648 167.028 8.90462 167.028 12.4209ZM164.074 12.4854C164.074 7.27897 166.645 4.67578 171.787 4.67578C176.85 4.67578 179.382 7.27897 179.382 12.4854C179.382 17.6631 176.85 20.252 171.787 20.252C166.874 20.252 164.303 17.6631 164.074 12.4854ZM182.078 20.123V4.7832H189.061C192.197 4.7832 193.766 6.15462 193.766 8.89746C193.766 10.7523 192.545 12.2884 190.103 13.5059L194.969 20.1445H191.381L186.708 13.4521V12.1523C189.429 11.6868 190.79 10.6305 190.79 8.9834C190.79 7.85189 190.153 7.28613 188.878 7.28613H184.979V20.123H182.078Z"
        fill="#00FFFC" />
    <path d="M156 13.1445H0" stroke="#00FFFC" />
    <path d="M358 13.1445H202" stroke="#00FFFC" />
</svg>