<svg width="23" height="25" viewBox="0 0 23 25" fill="none" xmlns="http://www.w3.org/2000/svg">
<path d="M11.3333 15.4159V17.7493M5.5 10.1995C6.04999 10.1659 6.72802 10.1659 7.6 10.1659H15.0667C15.9386 10.1659 16.6167 10.1659 17.1667 10.1995M5.5 10.1995C4.81363 10.2414 4.32667 10.3357 3.91103 10.5474C3.25246 10.883 2.71703 11.4184 2.38148 12.0769C2 12.8257 2 13.8057 2 15.7659V17.3993C2 19.3595 2 20.3395 2.38148 21.0883C2.71703 21.7468 3.25246 22.2822 3.91103 22.6178C4.65972 22.9993 5.63981 22.9993 7.6 22.9993H15.0667C17.0269 22.9993 18.0069 22.9993 18.7557 22.6178C19.4142 22.2822 19.9496 21.7468 20.2852 21.0883C20.6667 20.3395 20.6667 19.3595 20.6667 17.3993V15.7659C20.6667 13.8057 20.6667 12.8257 20.2852 12.0769C19.9496 11.4184 19.4142 10.883 18.7557 10.5474C18.34 10.3357 17.853 10.2414 17.1667 10.1995M5.5 10.1995V7.8326C5.5 4.61094 8.11168 1.99927 11.3333 1.99927C14.555 1.99927 17.1667 4.61094 17.1667 7.8326V10.1995" stroke="#185183" stroke-width="3" stroke-linecap="round" stroke-linejoin="round"/>
</svg>
