<svg width="25" height="25" viewBox="0 0 25 25" fill="none" xmlns="http://www.w3.org/2000/svg">
<path d="M18.3204 12.7907C19.3584 11.7381 20.0618 10.4023 20.3423 8.95123C20.6228 7.50017 20.4679 5.99862 19.8971 4.63529C19.3262 3.27197 18.3649 2.10773 17.1339 1.2889C15.9029 0.470073 14.4572 0.0332031 12.9785 0.0332031C11.4998 0.0332031 10.0541 0.470073 8.82314 1.2889C7.59216 2.10773 6.63082 3.27197 6.05996 4.63529C5.4891 5.99862 5.33419 7.50017 5.61472 8.95123C5.89524 10.4023 6.59867 11.7381 7.63659 12.7907C5.6774 13.5605 3.99496 14.9011 2.80768 16.6385C1.6204 18.376 0.983101 20.43 0.978516 22.534C0.978404 22.7309 1.01713 22.9259 1.09247 23.1079C1.16781 23.2898 1.2783 23.4551 1.41761 23.5943C1.55692 23.7336 1.72232 23.844 1.90436 23.9193C2.0864 23.9946 2.2815 24.0333 2.47852 24.0332H23.4785C23.6755 24.0333 23.8706 23.9946 24.0527 23.9193C24.2347 23.844 24.4001 23.7336 24.5394 23.5943C24.6787 23.4551 24.7892 23.2898 24.8646 23.1079C24.9399 22.9259 24.9786 22.7309 24.9785 22.534C24.9739 20.43 24.3366 18.376 23.1494 16.6385C21.9621 14.9011 20.2796 13.5605 18.3204 12.7907ZM12.9785 3.0445C13.8685 3.0445 14.7386 3.30828 15.4786 3.80248C16.2186 4.29668 16.7954 4.99911 17.136 5.82093C17.4766 6.64276 17.5657 7.54707 17.392 8.41951C17.2184 9.29196 16.7898 10.0934 16.1605 10.7223C15.5312 11.3513 14.7293 11.7797 13.8564 11.9532C12.9835 12.1268 12.0787 12.0377 11.2564 11.6973C10.4342 11.3569 9.73137 10.7804 9.2369 10.0408C8.74244 9.30118 8.47852 8.43162 8.47852 7.54208C8.47984 6.34965 8.95437 5.20645 9.798 4.36327C10.6416 3.5201 11.7854 3.04582 12.9785 3.0445ZM4.12794 21.0348C4.47647 19.3429 5.39778 17.8228 6.73667 16.7305C8.07556 15.6382 9.75021 15.0405 11.4785 15.038H14.4785C16.2068 15.0405 17.8815 15.6382 19.2204 16.7305C20.5593 17.8228 21.4806 19.3429 21.8291 21.0348H4.12794Z" fill="#185183"/>
</svg>
