<svg width="24" height="24" viewBox="0 0 24 24" fill="none" xmlns="http://www.w3.org/2000/svg">
<path d="M7.88571 24.0023C7.61292 24.0023 7.3513 23.894 7.1584 23.7011C6.96551 23.5082 6.85714 23.2466 6.85714 22.9738C6.85714 22.701 6.96551 22.4394 7.1584 22.2465C7.3513 22.0536 7.61292 21.9452 7.88571 21.9452H19.9543C20.4445 21.9782 20.928 21.8168 21.3002 21.496C21.6724 21.1751 21.9032 20.7207 21.9429 20.2309V3.77378C21.9032 3.28402 21.6724 2.82957 21.3002 2.50874C20.928 2.18792 20.4445 2.02653 19.9543 2.05949H7.88571C7.61292 2.05949 7.3513 1.95113 7.1584 1.75823C6.96551 1.56534 6.85714 1.30371 6.85714 1.03092C6.85714 0.758127 6.96551 0.496506 7.1584 0.303611C7.3513 0.110716 7.61292 0.00234938 7.88571 0.00234938H19.9543C20.9908 -0.0335657 21.9991 0.343501 22.7578 1.05069C23.5164 1.75787 23.9632 2.73732 24 3.77378V20.2309C23.9632 21.2674 23.5164 22.2468 22.7578 22.954C21.9991 23.6612 20.9908 24.0383 19.9543 24.0023H7.88571ZM9.90171 18.2149C9.80613 18.1194 9.73031 18.006 9.67858 17.8811C9.62685 17.7563 9.60022 17.6225 9.60022 17.4874C9.60022 17.3522 9.62685 17.2184 9.67858 17.0936C9.73031 16.9688 9.80613 16.8554 9.90171 16.7598L13.6306 13.0309H1.02857C0.755777 13.0309 0.494156 12.9226 0.301262 12.7297C0.108367 12.5368 0 12.2751 0 12.0023C0 11.7296 0.108367 11.4679 0.301262 11.275C0.494156 11.0821 0.755777 10.9738 1.02857 10.9738H13.632L9.90171 7.24349C9.72003 7.04851 9.62112 6.79062 9.62582 6.52415C9.63052 6.25768 9.73847 6.00343 9.92692 5.81498C10.1154 5.62653 10.3696 5.51858 10.6361 5.51388C10.9026 5.50918 11.1604 5.60809 11.3554 5.78978L16.8411 11.2755L16.859 11.2933L16.8658 11.3015L16.8754 11.3125L16.885 11.3235V11.3303L16.896 11.3427L16.907 11.3564L16.9179 11.3715L16.9289 11.3866L16.9399 11.4017L16.9495 11.4167V11.4236L16.9577 11.4373V11.4469V11.4579V11.4702V11.4785L16.9659 11.4935L16.9769 11.5141C17.0744 11.7115 17.1061 11.9349 17.0674 12.1516C17.0286 12.3683 16.9215 12.5669 16.7616 12.7182L11.3554 18.2149C11.1626 18.4075 10.9011 18.5157 10.6286 18.5157C10.356 18.5157 10.0946 18.4075 9.90171 18.2149Z" fill="white"/>
</svg>
