<svg width="16" height="16" viewBox="0 0 16 16" fill="none" xmlns="http://www.w3.org/2000/svg">
<path d="M10.4615 0C7.41827 0 4.92308 2.49519 4.92308 5.53846C4.92308 5.85817 4.97596 6.13942 5.01923 6.42308L0.173077 11.25L0 11.4423V16H4.30769V14.1538H6.15385V12.3077H8V10.4808C8.72596 10.8365 9.57212 11.0769 10.4615 11.0769C13.5048 11.0769 16 8.58173 16 5.53846C16 2.49519 13.5048 0 10.4615 0ZM10.4615 1.23077C12.8341 1.23077 14.7692 3.16587 14.7692 5.53846C14.7692 7.91106 12.8341 9.84615 10.4615 9.84615C9.71635 9.84615 8.94952 9.6274 8.36538 9.30769L8.21154 9.23077H6.76923V11.0769H4.92308V12.9231H3.07692V14.7692H1.23077V11.9615L6.09615 7.07692L6.32692 6.86538L6.26923 6.53846C6.20673 6.16827 6.15385 5.83894 6.15385 5.53846C6.15385 3.16587 8.08894 1.23077 10.4615 1.23077ZM11.6923 3.07692C11.012 3.07692 10.4615 3.6274 10.4615 4.30769C10.4615 4.98798 11.012 5.53846 11.6923 5.53846C12.3726 5.53846 12.9231 4.98798 12.9231 4.30769C12.9231 3.6274 12.3726 3.07692 11.6923 3.07692Z" fill="white"/>
</svg>
