<svg width="24" height="26" viewBox="0 0 24 26" fill="none" xmlns="http://www.w3.org/2000/svg">
<path d="M11.6667 16.3333V19M5 10.3717C5.62856 10.3333 6.40345 10.3333 7.4 10.3333H15.9333C16.9299 10.3333 17.7048 10.3333 18.3333 10.3717M5 10.3717C4.21557 10.4196 3.65905 10.5273 3.18404 10.7693C2.43139 11.1528 1.81947 11.7647 1.43597 12.5173C1 13.3731 1 14.4931 1 16.7333V18.6C1 20.8403 1 21.9603 1.43597 22.816C1.81947 23.5687 2.43139 24.1805 3.18404 24.564C4.03968 25 5.15979 25 7.4 25H15.9333C18.1736 25 19.2936 25 20.1493 24.564C20.902 24.1805 21.5139 23.5687 21.8973 22.816C22.3333 21.9603 22.3333 20.8403 22.3333 18.6V16.7333C22.3333 14.4931 22.3333 13.3731 21.8973 12.5173C21.5139 11.7647 20.902 11.1528 20.1493 10.7693C19.6743 10.5273 19.1177 10.4196 18.3333 10.3717M5 10.3717V7.66667C5 3.98477 7.98477 1 11.6667 1C15.3485 1 18.3333 3.98477 18.3333 7.66667V10.3717" stroke="white" stroke-width="2" stroke-linecap="round" stroke-linejoin="round"/>
</svg>
