<svg width="122" height="123" viewBox="0 0 122 123" fill="none" xmlns="http://www.w3.org/2000/svg">
<g clip-path="url(#clip0_2268_294)">
<path fill-rule="evenodd" clip-rule="evenodd" d="M96.8397 2.22L119.26 24.64C122.22 27.6 122.22 32.44 119.26 35.4L106.86 47.8L73.6797 14.62L86.0797 2.22C89.0397 -0.74 93.8797 -0.74 96.8397 2.22ZM70.1797 52.19V52.2C71.0997 53.12 71.5597 54.34 71.5597 55.54C71.5597 56.74 71.0997 57.95 70.1797 58.88V58.89L70.1697 58.9L40.0897 88.99H40.0797C39.8197 89.25 39.5297 89.47 39.2397 89.66H39.2297C38.9297 89.85 38.6197 90 38.2997 90.11C36.6397 90.69 34.7097 90.31 33.3897 88.99H33.3797V88.98C33.1197 88.72 32.8997 88.43 32.7097 88.14V88.13C32.5197 87.83 32.3697 87.52 32.2597 87.2C31.6797 85.54 32.0597 83.61 33.3697 82.29V82.28L63.4597 52.19H63.4697C64.3897 51.27 65.6097 50.81 66.8097 50.81C68.0097 50.81 69.2197 51.27 70.1497 52.19H70.1797ZM45.4797 109.11C36.4997 111.89 27.5297 114.66 18.5497 117.44C-2.55032 123.97 -2.46032 128.32 3.29968 108L12.3697 76L12.3397 75.97L67.3997 20.9L100.58 54.08L45.5097 109.15L45.4797 109.11ZM18.0297 81.66L39.8197 103.45C33.9197 105.27 28.0197 107.09 22.1297 108.9C8.26968 113.17 8.32968 116.03 12.0997 102.68L18.0297 81.66Z" fill="white"/>
</g>
<defs>
<clipPath id="clip0_2268_294">
<rect width="121.48" height="122.88" fill="white"/>
</clipPath>
</defs>
</svg>
