<svg width="22" height="22" viewBox="0 0 22 22" fill="none" xmlns="http://www.w3.org/2000/svg">
<path d="M11.0001 0.600098C5.2567 0.600098 0.600098 5.2567 0.600098 11.0001C0.600098 16.7435 5.2567 21.4001 11.0001 21.4001C16.7435 21.4001 21.4001 16.7435 21.4001 11.0001C21.4001 5.2567 16.7435 0.600098 11.0001 0.600098ZM16.8128 9.01283L10.2608 15.5648C10.0979 15.7278 9.87776 15.8188 9.64809 15.8188C9.41843 15.8188 9.19743 15.7278 9.03536 15.5648L6.04276 12.5722C5.7039 12.2334 5.7039 11.6856 6.04276 11.3468C6.38163 11.0079 6.92936 11.0079 7.26823 11.3468L9.64809 13.7266L15.5874 7.78736C15.9262 7.44849 16.474 7.44849 16.8128 7.78736C17.1517 8.12623 17.1517 8.67396 16.8128 9.01283Z" fill="white"/>
</svg>
