<svg width="1920" height="47" viewBox="0 0 1920 47" fill="none" xmlns="http://www.w3.org/2000/svg">
<path d="M223.878 43.1633L223.869 45.6633C224.283 45.6646 224.69 45.5636 225.054 45.3691L223.878 43.1633ZM299.184 3V0.5H298.559L298.007 0.794117L299.184 3ZM633.878 3L635.284 0.933218L634.648 0.5H633.878V3ZM694.123 44L692.716 46.0668L693.353 46.5H694.123V44ZM1193.65 44V46.5H1194.39L1195.01 46.0974L1193.65 44ZM1255.57 3.83673L1255.57 1.33674L1254.83 1.33859L1254.21 1.73933L1255.57 3.83673ZM1589.43 3L1590.59 0.783538L1590.04 0.498463L1589.42 0.500008L1589.43 3ZM1666.41 43.1633L1665.25 45.3797L1665.8 45.6633H1666.41V43.1633ZM-33.0081 44.8265L223.869 45.6633L223.886 40.6633L-32.9919 39.8265L-33.0081 44.8265ZM225.054 45.3691L300.36 5.20588L298.007 0.794117L222.701 40.9574L225.054 45.3691ZM299.184 5.5H633.878V0.5H299.184V5.5ZM632.471 5.06678L692.716 46.0668L695.529 41.9332L635.284 0.933218L632.471 5.06678ZM694.123 46.5H1193.65V41.5H694.123V46.5ZM1195.01 46.0974L1256.93 5.93414L1254.21 1.73933L1192.29 41.9026L1195.01 46.0974ZM1255.58 6.33673L1589.44 5.49999L1589.42 0.500008L1255.57 1.33674L1255.58 6.33673ZM1588.27 5.21646L1665.25 45.3797L1667.56 40.9468L1590.59 0.783538L1588.27 5.21646ZM1666.41 45.6633H1919.94V40.6633H1666.41V45.6633Z" fill="#00FFFC" fill-opacity="0.34"/>
</svg>
