<svg width="42" height="39" viewBox="0 0 42 39" fill="none" xmlns="http://www.w3.org/2000/svg">
<path d="M20.9998 0.759775C9.884 0.759775 0.839844 8.26938 0.839844 17.4998C0.839844 23.3788 4.62862 28.8963 10.7342 31.9242C10.4424 32.8314 9.58235 34.4352 8.68859 35.736C8.45723 36.073 8.46542 36.5186 8.70734 36.8479C8.89166 37.0994 9.18032 37.2398 9.47984 37.2398C9.57488 37.2398 9.66889 37.2245 9.76297 37.1966C12.0948 36.4766 14.6017 35.078 15.9898 33.7148C16.863 33.9008 17.7516 34.0273 18.6467 34.1123C20.9429 36.0452 24.1147 37.2304 27.568 37.2304C28.6926 37.2304 29.8206 37.0986 30.9242 36.8423C31.9288 37.5425 33.0207 37.806 34.0292 38.1492C34.4146 38.2814 34.8415 38.156 35.0942 37.8363C35.3468 37.5166 35.3701 37.0723 35.1523 36.7279C34.8086 36.1814 34.6027 35.9516 34.4136 35.511C37.9433 33.5842 40.1492 30.2873 40.1492 26.6741C40.1492 25.6642 39.971 24.6957 39.6598 23.7773C40.6159 21.8366 41.1598 19.7228 41.1598 17.4998C41.1598 8.26937 32.1157 0.759775 20.9998 0.759775ZM27.568 18.0398C33.546 18.0398 38.2292 22.0142 38.2292 26.6742C38.2292 29.5307 36.4997 32.2168 33.4405 33.8629C33.4398 33.8635 33.4392 33.8642 33.4386 33.8648C32.8328 34.1916 32.5909 34.8391 32.5892 35.5016C32.4202 35.418 32.1284 35.359 31.9892 35.2598C31.9886 35.2592 31.988 35.2585 31.9874 35.2579C31.6827 35.0423 31.3097 34.9204 30.9317 34.9204C30.7914 34.9204 30.6504 34.937 30.5136 34.9692C29.5448 35.1962 28.5536 35.3104 27.568 35.3104C21.5899 35.3104 16.9067 31.3341 16.9067 26.6742C16.9068 22.0142 21.5899 18.0398 27.568 18.0398ZM22.6348 24.8141C21.948 24.8000 21.3072 25.1585 20.9597 25.751C20.6121 26.3436 20.6121 27.0778 20.9597 27.6704C21.3072 28.263 21.948 28.6213 22.6348 28.6073C23.3217 28.6213 23.9625 28.263 24.31 27.6704C24.6575 27.0778 24.6575 26.3436 24.31 25.751C23.9625 25.1584 23.3217 24.8000 22.6348 24.8141ZM27.9467 24.8141C27.2599 24.8000 26.6191 25.1585 26.2716 25.751C25.924 26.3436 25.924 27.0778 26.2716 27.6704C26.6191 28.263 27.2599 28.6213 27.9467 28.6073C28.6336 28.6213 29.2743 28.263 29.6219 27.6704C29.9694 27.0778 29.9694 26.3436 29.6219 25.751C29.2743 25.1584 28.6336 24.8000 27.9467 24.8141ZM33.2586 24.8141C32.5718 24.8000 31.931 25.1585 31.5834 25.751C31.2359 26.3436 31.2359 27.0778 31.5834 27.6704C31.931 28.263 32.5718 28.6213 33.2586 28.6073C33.9454 28.6213 34.5862 28.263 34.9337 27.6704C35.2813 27.0778 35.2813 26.3436 34.9337 25.751C34.5862 25.1584 33.9454 24.8000 33.2586 24.8141Z" fill="white"/>
</svg>
