<svg width="43" height="43" viewBox="0 0 43 43" fill="none" xmlns="http://www.w3.org/2000/svg">
<path d="M33.1934 0C32.2668 0 31.5111 0.803775 31.5111 1.78927V10.3442L22.6262 0.894636C21.969 0.195702 20.865 0.195702 20.2078 0.894636L0.492874 21.9186C-0.164291 22.6175 -0.164291 23.7358 0.492874 24.4348C1.15004 25.1337 2.20151 25.1337 2.85867 24.4348L21.417 4.69684L40.028 24.4907C40.3565 24.8401 40.8034 25.0498 41.2371 25.0498C41.6709 25.0498 42.0652 24.8401 42.3938 24.4907C43.0509 23.7917 43.0509 22.6734 42.3938 21.9745L36.5581 15.768V1.78927C36.5581 0.803775 35.8024 0 34.8758 0H33.1934ZM21.417 7.99581L2.91124 27.6778V37.5188C2.91124 40.4823 5.17189 42.8866 7.95828 42.8866H34.8758C37.6622 42.8866 39.9228 40.4823 39.9228 37.5188V27.6778L21.417 7.99581ZM18.0523 24.9939H24.7817C25.7083 24.9939 26.4641 25.7977 26.4641 26.7832V37.5188C26.4641 38.5043 25.7083 39.3081 24.7817 39.3081H18.0523C17.1257 39.3081 16.37 38.5043 16.37 37.5188V26.7832C16.37 25.7977 17.1257 24.9939 18.0523 24.9939Z" fill="white"/>
</svg>
