<svg width="46" height="46" viewBox="0 0 46 46" fill="none" xmlns="http://www.w3.org/2000/svg">
<path d="M44.2736 19.3721L38.6 18.4447C38.2678 17.3062 37.8137 16.2118 37.2454 15.1759L40.5574 10.4556C40.8252 10.0745 40.7792 9.55512 40.4499 9.22488L36.7164 5.49336C36.3833 5.1612 35.8592 5.118 35.4771 5.39352L30.8278 8.73528C29.7824 8.15736 28.6784 7.69848 27.5331 7.36536L26.5433 1.7148C26.4627 1.25592 26.0643 0.919922 25.5977 0.919922H20.3177C19.8473 0.919922 19.446 1.26072 19.3702 1.72536L18.4524 7.3452C17.3004 7.6764 16.1945 8.13048 15.1529 8.70072L10.5161 5.38872C10.1331 5.11512 9.61179 5.15928 9.27868 5.49048L5.54715 9.222C5.21787 9.55128 5.1718 10.0697 5.43964 10.4508L8.70268 15.1193C8.12188 16.1705 7.65915 17.2831 7.32219 18.4409L1.72443 19.373C1.26171 19.4498 0.921875 19.8511 0.921875 20.3196V25.5996C0.921875 26.0652 1.25595 26.4636 1.71387 26.5452L7.31164 27.5378C7.64668 28.6927 8.10939 29.8054 8.69211 30.8594L5.38875 35.4799C5.11611 35.861 5.15931 36.3842 5.49051 36.7174L9.22299 40.4527C9.55227 40.782 10.0716 40.8281 10.4528 40.5602L15.128 37.2857C16.1772 37.8626 17.286 38.3206 18.4352 38.6527L19.3721 44.2793C19.448 44.741 19.8483 45.0799 20.3177 45.0799H25.5977C26.0633 45.0799 26.4617 44.7458 26.5424 44.2879L27.5456 38.6335C28.6966 38.2946 29.7996 37.8338 30.8384 37.2559L35.5472 40.5593C35.9292 40.829 36.4476 40.782 36.7779 40.4527L40.5104 36.7174C40.8425 36.3842 40.8857 35.8591 40.6102 35.477L37.2521 30.8143C37.8214 29.7775 38.2736 28.6812 38.6028 27.5426L44.2841 26.5452C44.744 26.4646 45.078 26.0652 45.078 25.5996V20.3196C45.079 19.8492 44.7382 19.4479 44.2736 19.3721ZM23 29.7199C19.2886 29.7199 16.28 26.7113 16.28 22.9999C16.28 19.2886 19.2886 16.2799 23 16.2799C26.7113 16.2799 29.72 19.2886 29.72 22.9999C29.72 26.7113 26.7113 29.7199 23 29.7199Z" fill="white"/>
</svg>
