<svg width="1953" height="47" viewBox="0 0 1953 47" fill="none" xmlns="http://www.w3.org/2000/svg">
<path d="M1696.06 3.83673L1696.07 1.33675C1695.66 1.3354 1695.25 1.43645 1694.89 1.63085L1696.06 3.83673ZM1620.76 44V46.5H1621.38L1621.93 46.2059L1620.76 44ZM1286.06 44L1284.66 46.0668L1285.29 46.5H1286.06V44ZM1225.82 3L1227.22 0.933216L1226.59 0.5H1225.82V3ZM726.286 3V0.5H725.546L724.926 0.902596L726.286 3ZM664.368 43.1633L664.374 45.6633L665.11 45.6614L665.728 45.2607L664.368 43.1633ZM330.51 44L329.354 46.2165L329.901 46.5015L330.517 46.5L330.51 44ZM253.531 3.83673L254.687 1.62027L254.144 1.33673H253.531V3.83673ZM1952.95 2.17348L1696.07 1.33675L1696.05 6.33672L1952.93 7.17345L1952.95 2.17348ZM1694.89 1.63085L1619.58 41.7941L1621.93 46.2059L1697.24 6.04262L1694.89 1.63085ZM1620.76 41.5L1286.06 41.5V46.5L1620.76 46.5V41.5ZM1287.47 41.9332L1227.22 0.933216L1224.41 5.06678L1284.66 46.0668L1287.47 41.9332ZM1225.82 0.5L726.286 0.5V5.5L1225.82 5.5V0.5ZM724.926 0.902596L663.007 41.0659L665.728 45.2607L727.647 5.0974L724.926 0.902596ZM664.361 40.6633L330.504 41.5L330.517 46.5L664.374 45.6633L664.361 40.6633ZM331.667 41.7835L254.687 1.62027L252.375 6.0532L329.354 46.2165L331.667 41.7835ZM253.531 1.33673L0.000244141 1.33673V6.33673L253.531 6.33673V1.33673Z" fill="#00FFFC" fill-opacity="0.34"/>
</svg>
