<svg width="40" height="36" viewBox="0 0 40 36" fill="none" xmlns="http://www.w3.org/2000/svg">
<path d="M15.0732 15.7637C18.8379 15.7637 21.8896 12.7754 21.8896 9.08887V6.86719C21.8896 3.18066 18.8379 0.192383 15.0732 0.192383C11.3086 0.192383 8.25684 3.18066 8.25684 6.86719V9.08887C8.25684 12.7754 11.3086 15.7637 15.0732 15.7637ZM26.2451 21.7939C22.7734 20.417 19.0088 19.6602 15.0732 19.6602C11.1426 19.6602 7.3877 20.417 3.9209 21.7891C1.89453 22.7217 0.46875 24.8164 0.46875 27.2773V30.0215C0.46875 31.833 1.63086 33.3564 3.21289 33.8545C7.02637 34.748 10.9961 35.2363 15.0732 35.2363C19.1455 35.2363 23.1104 34.748 26.9189 33.8496C28.5107 33.3564 29.6777 31.8379 29.6777 30.0117V27.2676C29.6777 24.8213 28.2666 22.7266 26.2451 21.7939ZM34.5459 10.8955V6.02734H31.6211V10.8955H26.7529V13.8154H31.6211V18.6836H34.541V13.8154H39.4092V10.8955H34.5459Z" fill="white"/>
</svg>
