<svg width="30" height="30" viewBox="0 0 30 30" fill="none" xmlns="http://www.w3.org/2000/svg">
<path d="M15 0.5C11.125 0.5 7.475 2 4.75 4.75C2 7.475 0.5 11.125 0.5 15C0.5 18.875 2 22.525 4.75 25.25C7.475 28 11.125 29.5 15 29.5C18.875 29.5 22.525 28 25.25 25.25C28 22.5 29.5 18.875 29.5 15C29.5 11.125 28 7.475 25.25 4.75C22.525 2 18.875 0.5 15 0.5ZM15 2C18.475 2 21.7252 3.34981 24.2002 5.79981C26.6752 8.24981 28 11.525 28 15C28 18.475 26.6502 21.7252 24.2002 24.2002C21.7502 26.6752 18.475 28 15 28C11.525 28 8.27481 26.6502 5.79981 24.2002C3.32481 21.7502 2 18.475 2 15C2 11.525 3.34981 8.27481 5.79981 5.79981C8.27481 3.34981 11.525 2 15 2ZM14.9873 6.73144C12.8748 6.73144 10.7624 7.5374 9.1499 9.1499C5.9249 12.3749 5.9249 17.6002 9.1499 20.8252C10.7749 22.4502 12.875 23.25 15 23.25C17.125 23.25 19.2252 22.4502 20.8252 20.8252C24.0502 17.6002 24.0502 12.3749 20.8252 9.1499C19.2127 7.5374 17.0998 6.73144 14.9873 6.73144ZM15 8.25C16.725 8.25 18.4499 8.9001 19.7749 10.2251C22.2249 12.6751 22.3999 16.5752 20.2749 19.2002L10.7749 9.7251C12.0249 8.7501 13.5 8.25 15 8.25ZM9.7251 10.7749L19.2002 20.25C16.5502 22.375 12.6751 22.2 10.2251 19.75C7.7751 17.3 7.6001 13.4249 9.7251 10.7749Z" fill="white"/>
</svg>
