<svg width="19" height="22" viewBox="0 0 19 22" fill="none" xmlns="http://www.w3.org/2000/svg">
<path d="M0.185547 19.7778V5.14767C0.185547 4.75315 0.333492 4.40794 0.612944 4.11205C0.892396 3.81616 1.2376 3.68465 1.63212 3.68465H3.0787V2.58328C3.0787 2.07369 3.25952 1.6463 3.60472 1.28465C3.96637 0.923009 4.37733 0.742188 4.88692 0.742188H5.6102C6.10335 0.742188 6.53075 0.923009 6.8924 1.28465C7.25404 1.6463 7.41842 2.07369 7.41842 2.58328V3.68465H11.7581V2.58328C11.7581 2.07369 11.939 1.6463 12.2842 1.28465C12.6458 0.923009 13.0568 0.742188 13.5664 0.742188H14.2897C14.7828 0.742188 15.2102 0.923009 15.5718 1.28465C15.9335 1.6463 16.0979 2.07369 16.0979 2.58328V3.68465H17.5444C17.939 3.68465 18.2677 3.8326 18.5636 4.11205C18.8431 4.40794 18.991 4.73671 18.991 5.14767V19.7614C18.991 20.1559 18.8431 20.5011 18.5636 20.797C18.2842 21.0929 17.939 21.2244 17.5444 21.2244H1.63212C1.2376 21.2244 0.908834 21.0764 0.612944 20.797C0.333492 20.5011 0.185547 20.1723 0.185547 19.7778ZM1.63212 19.7778H17.5444V8.07369H1.63212V19.7778ZM4.52527 5.88739C4.52527 5.98602 4.55815 6.08465 4.6239 6.15041C4.68966 6.21616 4.77185 6.24904 4.88692 6.24904H5.6102C5.70883 6.24904 5.80746 6.21616 5.87322 6.15041C5.93897 6.08465 5.97185 6.00246 5.97185 5.88739V2.59972C5.97185 2.50109 5.93897 2.40246 5.87322 2.33671C5.80746 2.27095 5.72527 2.23808 5.6102 2.23808H4.88692C4.78829 2.23808 4.68966 2.27095 4.6239 2.33671C4.55815 2.40246 4.52527 2.50109 4.52527 2.59972V5.88739ZM13.2047 5.88739C13.2047 5.98602 13.2376 6.08465 13.3034 6.15041C13.3691 6.21616 13.4513 6.24904 13.5664 6.24904H14.2897C14.3883 6.24904 14.4869 6.21616 14.5527 6.15041C14.6184 6.08465 14.6513 6.00246 14.6513 5.88739V2.59972C14.6513 2.50109 14.6184 2.40246 14.5527 2.33671C14.4869 2.27095 14.4047 2.23808 14.2897 2.23808H13.5664C13.4677 2.23808 13.3691 2.27095 13.3034 2.33671C13.2376 2.40246 13.2047 2.50109 13.2047 2.59972V5.88739Z" fill="white"/>
</svg>
