<svg width="21" height="21" viewBox="0 0 21 21" fill="none" xmlns="http://www.w3.org/2000/svg">
<g clip-path="url(#clip0_1452_315)">
<path d="M11.4094 12.1972L9.30927 14.2967C9.30993 14.3211 9.31055 14.3455 9.31055 14.3698C9.31055 14.7146 9.24517 15.0581 9.11507 15.3798C8.98369 15.7002 8.79014 16.0014 8.52547 16.2642L7.14439 17.6472C6.87971 17.9113 6.57977 18.1048 6.25808 18.2355C5.93574 18.3663 5.59285 18.4316 5.24873 18.4316C4.90522 18.4316 4.56172 18.3663 4.23999 18.2368C3.91826 18.1048 3.61836 17.9112 3.35303 17.6472C3.08897 17.3832 2.89546 17.0833 2.7647 16.7615C2.63394 16.4398 2.5686 16.0963 2.5686 15.7515C2.5686 15.408 2.63398 15.0645 2.7647 14.7428C2.89542 14.421 3.08897 14.1211 3.35303 13.8558L4.73603 12.4741C5.00009 12.2113 5.29934 12.0165 5.62172 11.8858C5.94279 11.755 6.28696 11.6897 6.63046 11.6897C6.65483 11.6897 6.67919 11.6909 6.7029 11.6922L8.80302 9.59085C8.73764 9.56074 8.67165 9.53252 8.60434 9.50562C7.9718 9.24927 7.30082 9.12109 6.63046 9.12109C5.9601 9.12109 5.28847 9.24927 4.65659 9.50562C4.02404 9.76196 3.42997 10.1491 2.9192 10.6579L1.53747 12.0409C1.02732 12.5498 0.64091 13.1445 0.384562 13.7777C0.128215 14.4109 0 15.0812 0 15.7515C0 16.4218 0.128174 17.0935 0.384521 17.7266C0.640869 18.3585 1.02732 18.9532 1.53743 19.4621C2.04693 19.9735 2.64165 20.3606 3.2742 20.6157C3.90739 20.8733 4.57837 21.0002 5.24873 21.0002C5.9197 21.0002 6.59072 20.8733 7.22326 20.6157C7.8558 20.3606 8.45053 19.9735 8.96003 19.4621L10.3424 18.0817C10.8519 17.5703 11.2383 16.9768 11.4953 16.3449C11.7523 15.7105 11.8791 15.0401 11.8798 14.3698C11.8791 13.7007 11.7523 13.0291 11.4953 12.3946C11.4677 12.3293 11.4389 12.2626 11.4094 12.1972Z" fill="white"/>
<path d="M20.6157 3.27485C20.3594 2.64165 19.9729 2.04693 19.4628 1.53747C18.9533 1.02797 18.3586 0.64091 17.7254 0.384562C17.0928 0.128174 16.4219 0 15.7515 0C15.0812 0 14.4095 0.128174 13.777 0.384521C13.1444 0.640869 12.5497 1.02797 12.0402 1.53743L10.6579 2.91978C10.1484 3.42866 9.76196 4.02339 9.50496 4.65654C9.24795 5.28843 9.12109 5.96006 9.12109 6.63108C9.12109 7.30144 9.248 7.97241 9.50496 8.60561C9.53252 8.67226 9.5607 8.73764 9.59085 8.80363L11.691 6.70351C11.6903 6.6798 11.6897 6.6561 11.6897 6.63108C11.6897 6.28692 11.7551 5.94279 11.8858 5.62172C12.0166 5.3 12.2101 5.00009 12.4747 4.73476L13.8558 3.35303C14.1205 3.09028 14.4204 2.89607 14.7428 2.7647C15.0632 2.63525 15.4074 2.5686 15.7515 2.5686C16.0963 2.5686 16.4385 2.63525 16.7615 2.7647C17.082 2.89607 17.3825 3.09028 17.6472 3.35303C17.9113 3.61836 18.1048 3.91826 18.2355 4.23999C18.365 4.56172 18.4316 4.90522 18.4316 5.24873C18.4316 5.59289 18.365 5.93574 18.2355 6.25874C18.1048 6.58046 17.9113 6.88037 17.6472 7.14443L16.2655 8.52616C16.0014 8.79022 15.7009 8.98373 15.3785 9.11449C15.0574 9.24525 14.7139 9.31059 14.3698 9.31059C14.3454 9.31059 14.3211 9.30993 14.2973 9.30932L12.1972 11.4101C12.2626 11.4396 12.3286 11.4684 12.3946 11.4947C13.0284 11.7523 13.6995 11.8805 14.3698 11.8805C15.0401 11.8805 15.7118 11.7523 16.3437 11.4947C16.9762 11.2384 17.5703 10.8519 18.081 10.3424L19.4628 8.96007C19.9729 8.45057 20.3593 7.85584 20.6157 7.22269C20.872 6.5908 21.0002 5.91917 21.0002 5.24881C21.0002 4.57845 20.8721 3.90674 20.6157 3.27485Z" fill="white"/>
<path d="M6.57119 14.4282C7.07297 14.9307 7.88627 14.9307 8.3874 14.4282L14.4282 8.3874C14.9294 7.88623 14.9307 7.07363 14.4282 6.57119C13.9264 6.07002 13.1131 6.07002 12.612 6.57119L6.57119 12.6133C6.07002 13.1145 6.07002 13.9271 6.57119 14.4282Z" fill="white"/>
</g>
<defs>
<clipPath id="clip0_1452_315">
<rect width="21" height="21" fill="white"/>
</clipPath>
</defs>
</svg>
