<svg width="30" height="36" viewBox="0 0 30 36" fill="none" xmlns="http://www.w3.org/2000/svg">
<path d="M14.6045 15.5713C18.3691 15.5713 21.4209 12.583 21.4209 8.89648V6.6748C21.4209 2.98828 18.3691 0 14.6045 0C10.8398 0 7.78809 2.98828 7.78809 6.6748V8.89648C7.78809 12.583 10.8398 15.5713 14.6045 15.5713ZM25.7764 21.6016C22.3047 20.2246 18.54 19.4678 14.6045 19.4678C10.6738 19.4678 6.91895 20.2246 3.45215 21.5967C1.42578 22.5293 0 24.624 0 27.085V29.8291C0 31.6406 1.16211 33.1641 2.74414 33.6621C6.55762 34.5557 10.5273 35.0439 14.6045 35.0439C18.6768 35.0439 22.6416 34.5557 26.4502 33.6572C28.042 33.1641 29.209 31.6455 29.209 29.8193V27.0752C29.209 24.6289 27.7979 22.5342 25.7764 21.6016Z" fill="white"/>
</svg>
