<svg width="63" height="63" viewBox="0 0 63 63" fill="none" xmlns="http://www.w3.org/2000/svg">
<path d="M30.25 2.45374C31.0235 2.00716 31.9765 2.00716 32.75 2.45374L56.0298 15.8943C56.8033 16.3409 57.2798 17.1662 57.2798 18.0594V44.9406C57.2798 45.8338 56.8033 46.6591 56.0298 47.1057L32.75 60.5463C31.9765 60.9928 31.0235 60.9928 30.25 60.5463L6.9702 47.1057C6.1967 46.6591 5.7202 45.8338 5.7202 44.9406V18.0594C5.7202 17.1662 6.1967 16.3409 6.9702 15.8943L30.25 2.45374Z" stroke="#B54C1E" stroke-width="3"/>
<path d="M29.25 8.58771C30.3329 7.9625 31.6671 7.9625 32.75 8.58771L50.4006 18.7783C51.4835 19.4035 52.1506 20.559 52.1506 21.8094V42.1906C52.1506 43.441 51.4835 44.5965 50.4006 45.2217L32.75 55.4123C31.6671 56.0375 30.3329 56.0375 29.25 55.4123L11.5994 45.2217C10.5165 44.5965 9.84937 43.441 9.84937 42.1906V21.8094C9.84937 20.559 10.5165 19.4035 11.5994 18.7783L29.25 8.58771Z" stroke="#96411B"/>
<path d="M37.7703 16.582H28.0802L24.6063 24.8095H28.4458L24.7892 29.3804H27.7145L23.875 36.1452L38.6845 26.455H33.1995L37.5875 22.067H32.8338L37.7703 16.582Z" fill="white"/>
<g filter="url(#filter0_d_905_237)">
<path d="M34.4843 16.582H28.4508L25.3427 24.4439H29.1822L25.3427 29.3804H28.0852L24.6113 35.5967L34.6672 26.6379H30.0963L33.9358 22.4327H30.0963L34.4843 16.582Z" fill="url(#paint0_linear_905_237)"/>
</g>
<path d="M19.4395 44V39.8105H21.4023C22.1992 39.8105 22.5977 40.1357 22.5977 40.7861C22.5977 41.2627 22.3379 41.6035 21.8184 41.8086C22.373 41.9121 22.6504 42.2295 22.6504 42.7607C22.6504 43.5869 22.2139 44 21.3408 44H19.4395ZM21.3086 43.3262C21.6523 43.3262 21.8242 43.1504 21.8242 42.7988C21.8242 42.3633 21.5674 42.1455 21.0537 42.1455H20.8193V41.6445C21.4639 41.5371 21.7861 41.2676 21.7861 40.8359C21.7861 40.6016 21.6416 40.4844 21.3525 40.4844H20.2158V43.3262H21.3086ZM23.3125 43.9941V39.8105H25.2168C26.0723 39.8105 26.5 40.1846 26.5 40.9326C26.5 41.4385 26.167 41.8574 25.501 42.1895L26.8281 44H25.8496L24.5752 42.1748V41.8203C25.3174 41.6934 25.6885 41.4053 25.6885 40.9561C25.6885 40.6475 25.5146 40.4932 25.167 40.4932H24.1035V43.9941H23.3125ZM27.8564 41.8936C27.8564 42.8682 28.2891 43.3555 29.1543 43.3555C29.998 43.3555 30.4199 42.8682 30.4199 41.8936C30.4199 40.9346 29.998 40.4551 29.1543 40.4551C28.2891 40.4551 27.8564 40.9346 27.8564 41.8936ZM27.0508 41.9111C27.0508 40.4912 27.752 39.7812 29.1543 39.7812C30.5352 39.7812 31.2256 40.4912 31.2256 41.9111C31.2256 43.3232 30.5352 44.0293 29.1543 44.0293C27.8145 44.0293 27.1133 43.3232 27.0508 41.9111ZM31.9609 44V39.8105H32.7373L34.9492 42.8633V39.8105H35.6963V44H34.9199L32.708 40.8828V44H31.9609ZM39.6104 39.8105V40.4844L37.3809 43.3262H39.6104V44H36.5049V43.3262L38.8311 40.4844H36.5635V39.8105H39.6104ZM43.1084 39.8105V40.4785H41.0107V41.5332H43.0088V42.2275H41.002V43.3262H43.1494V44H40.2402V39.8105H43.1084Z" fill="white"/>
<defs>
<filter id="filter0_d_905_237" x="20.6113" y="16.582" width="18.0566" height="27.0146" filterUnits="userSpaceOnUse" color-interpolation-filters="sRGB">
<feFlood flood-opacity="0" result="BackgroundImageFix"/>
<feColorMatrix in="SourceAlpha" type="matrix" values="0 0 0 0 0 0 0 0 0 0 0 0 0 0 0 0 0 0 127 0" result="hardAlpha"/>
<feOffset dy="4"/>
<feGaussianBlur stdDeviation="2"/>
<feComposite in2="hardAlpha" operator="out"/>
<feColorMatrix type="matrix" values="0 0 0 0 0 0 0 0 0 0 0 0 0 0 0 0 0 0 0.25 0"/>
<feBlend mode="normal" in2="BackgroundImageFix" result="effect1_dropShadow_905_237"/>
<feBlend mode="normal" in="SourceGraphic" in2="effect1_dropShadow_905_237" result="shape"/>
</filter>
<linearGradient id="paint0_linear_905_237" x1="29.6392" y1="16.582" x2="29.6392" y2="35.5967" gradientUnits="userSpaceOnUse">
<stop stop-color="#A45122"/>
<stop offset="1" stop-color="#EB8145"/>
</linearGradient>
</defs>
</svg>
