<svg width="24" height="22" viewBox="0 0 24 22" fill="none" xmlns="http://www.w3.org/2000/svg">
<path d="M7.98633 20.6722C7.98633 20.816 8.06618 20.9479 8.19316 21.0151C8.32005 21.0823 8.47433 21.0736 8.59292 20.9924L11.2639 19.1686L7.98638 17.6064V20.6722H7.98633Z" fill="white"/>
<path d="M23.8753 0.10303C23.8019 0.0353937 23.7072 0 23.6115 0C23.5538 0 23.4963 0.0127999 23.4418 0.0395634L0.383235 11.3504C0.147551 11.4663 -0.00158724 11.7069 1.27467e-05 11.9702C0.00161274 12.2331 0.153272 12.4722 0.390653 12.5854L6.4678 15.4811L18.619 5.49379L7.97349 16.1985L15.5441 19.8057C15.6371 19.8503 15.7386 19.8725 15.8391 19.8725C15.9248 19.8725 16.0097 19.8569 16.0905 19.8251C16.2669 19.7554 16.407 19.6157 16.477 19.4394L23.9725 0.530373C24.0318 0.381573 23.9931 0.211441 23.8753 0.10303Z" fill="white"/>
</svg>
