<svg width="138" height="196" viewBox="0 0 138 196" fill="none" xmlns="http://www.w3.org/2000/svg">
<path d="M80.8323 0.932668C70.5058 2.59824 55.6822 8.34447 53.7668 11.5091C53.1838 12.3418 46.8546 27.8317 39.6094 45.9031L26.5346 78.7982L28.0337 82.7956C30.3655 89.1247 35.3622 95.2041 52.4343 112.11C70.6723 130.181 72.9208 133.512 72.9208 142.09C72.9208 155.831 59.8461 166.241 49.0199 161.077C43.3569 158.413 42.6074 152.999 45.8553 139.175C47.0212 134.345 47.9372 129.765 47.9372 128.932C47.9372 127.599 46.5215 127.516 26.951 127.683L5.96482 127.933L3.63302 137.926C-1.94665 161.744 0.218594 175.901 10.8783 185.728C19.3727 193.556 29.616 196.138 49.1864 195.555C60.429 195.222 63.6769 194.805 69.8395 192.973C93.7405 185.811 108.897 170.155 115.56 145.671C117.059 140.258 117.475 136.594 117.475 128.349C117.475 118.356 117.392 117.689 114.893 112.526C111.645 105.864 105.899 98.7018 92.6579 84.6277C86.9949 78.6316 80.5825 71.5529 78.4172 68.8048C74.17 63.6415 68.7569 53.3982 68.7569 50.5667C68.7569 44.9038 74.17 36.6592 79.3333 34.5772C83.2474 32.9117 88.6605 33.1615 91.8251 35.0769C96.3221 37.7418 96.8218 41.7392 94.2402 53.3982C93.0743 58.728 92.0749 63.3084 92.0749 63.6415C92.0749 63.9746 101.152 64.2244 112.312 64.2244H132.465L134.88 53.5648C139.877 31.829 138.544 19.7536 130.05 11.3425C122.472 3.76414 114.06 1.01595 97.0716 0.516275C90.909 0.349718 83.5805 0.516275 80.8323 0.932668Z" fill="white"/>
</svg>
