<svg width="134" height="196" viewBox="0 0 134 196" fill="none" xmlns="http://www.w3.org/2000/svg">
<path d="M14.8236 3.64494C14.5738 5.64363 13.158 22.5492 11.8256 41.3702C7.4118 101.164 0.999344 185.276 0.499672 190.689L0 195.852L28.1482 195.685L56.2964 195.436L62.2092 180.446C74.4511 149.716 102.433 79.1787 116.923 42.203C123.169 26.4633 131.247 5.89347 133.163 1.14659C133.496 0.397083 128.666 0.147247 110.761 0.147247H88.0255L63.8747 72.1C50.5501 111.657 39.6406 143.969 39.5574 143.886C39.4741 143.803 41.6393 130.895 44.3875 115.072C47.0524 99.3321 51.8826 67.6862 55.1305 44.7846C58.3783 21.7997 61.1265 2.39577 61.2931 1.56299C61.6262 0.23053 60.1272 0.147247 38.4747 0.147247H15.24L14.8236 3.64494Z" fill="white"/>
</svg>
