<svg width="1570" height="724" viewBox="0 0 1570 724" fill="none" xmlns="http://www.w3.org/2000/svg">
    <path d="M1 1H1569V719H1V1Z" stroke="#00FFFF" stroke-width="2"/>
    <rect x="29" y="42" width="1512.16" height="644" fill="#00FFFF" fill-opacity="0.1"/>
    <path d="M361.267 680.15L320 716.279H402.535L361.267 680.15Z" stroke="#00FFFF" stroke-width="2"/>
    <path d="M1202.27 682.416L1161 718.545H1243.53L1202.27 682.416Z" stroke="#00FFFF" stroke-width="2"/>
    <path d="M779.273 672.381L732.11 713.671H826.436L779.273 672.381Z" fill="#00FFFF"/>
    <path d="M781.862 641.328L696 716.499H867.724L781.862 641.328Z" stroke="#00FFFF" stroke-width="2"/>
    <rect y="713" width="1570" height="11" fill="#00FFFF"/>
    <path d="M378 0H1184.24C1184.24 0 1180.13 10.3226 1172.39 10.3226C1164.66 10.3226 403.791 10.3226 393.475 10.3226C383.159 10.3226 378 0 378 0Z" fill="#00FFFF"/>
    <path d="M566.644 26.0371L543.062 5.39195H590.225L566.644 26.0371Z" stroke="#00FFFF" stroke-width="2"/>
    <path d="M989.581 26.0371L966 5.39195H1013.16L989.581 26.0371Z" stroke="#00FFFF" stroke-width="2"/>
    <path d="M779.308 29.6162L755.321 8.28288H803.295L779.308 29.6162Z" fill="#00FFFF"/>
    <path d="M778.569 45.5479L734 6.52859H823.138L778.569 45.5479Z" stroke="#00FFFF" stroke-width="2"/>
    <path d="M1120.6 363.229H450M782.719 196V533.032" stroke="#00FFFF" stroke-opacity="0.7" stroke-width="2"/>
    <rect x="780.129" y="330.25" width="5.15842" height="67.0969" fill="#00FFFF" fill-opacity="0.7"/>
    <rect x="781.129" y="331.25" width="3.15842" height="65.0969" stroke="#00FFFF" stroke-opacity="0.7" stroke-width="2"/>
    <rect x="744.038" y="361.303" width="77.3761" height="5.16129" fill="#00FFFF" fill-opacity="0.7"/>
    <rect x="745.038" y="362.303" width="75.3761" height="3.16129" stroke="#00FFFF" stroke-opacity="0.7" stroke-width="2"/>
</svg>
